<svg width="169" height="34" viewBox="0 0 169 34" fill="none" xmlns="http://www.w3.org/2000/svg">
<path fill-rule="evenodd" clip-rule="evenodd" d="M19.4558 0C18.0079 0 16.8341 1.16623 16.8341 2.60484V9.18548C16.8341 10.6241 18.0079 11.7903 19.4558 11.7903C20.9038 11.7903 22.0775 10.6241 22.0775 9.18548V2.60484C22.0775 1.16623 20.9038 0 19.4558 0ZM20.6977 9.18548V2.60484C20.6977 1.92339 20.1417 1.37097 19.4558 1.37097C18.77 1.37097 18.214 1.92339 18.214 2.60484V9.18548C18.214 9.86693 18.77 10.4194 19.4558 10.4194C20.1417 10.4194 20.6977 9.86693 20.6977 9.18548Z" fill="#8C4DFE"/>
<path fill-rule="evenodd" clip-rule="evenodd" d="M19.4558 27.1452C18.0079 27.1452 16.8341 28.3114 16.8341 29.75V31.3952C16.8341 32.8338 18.0079 34 19.4558 34C20.9038 34 22.0775 32.8338 22.0775 31.3952V29.75C22.0775 28.3114 20.9038 27.1452 19.4558 27.1452ZM20.6977 31.3952V29.75C20.6977 29.0686 20.1417 28.5161 19.4558 28.5161C18.77 28.5161 18.214 29.0686 18.214 29.75V31.3952C18.214 32.0766 18.77 32.629 19.4558 32.629C20.1417 32.629 20.6977 32.0766 20.6977 31.3952Z" fill="#8C4DFE"/>
<path fill-rule="evenodd" clip-rule="evenodd" d="M8.969 17C10.4169 17 11.5907 18.1662 11.5907 19.6048C11.5907 21.0435 10.4169 22.2097 8.969 22.2097H2.62171C1.17378 22.2097 0 21.0435 0 19.6048C0 18.1662 1.17378 17 2.62171 17H8.969ZM8.969 20.8387H2.62171C1.93585 20.8387 1.37985 20.2863 1.37985 19.6048C1.37985 18.9234 1.93585 18.371 2.62171 18.371H8.969C9.65486 18.371 10.2109 18.9234 10.2109 19.6048C10.2109 20.2863 9.65486 20.8387 8.969 20.8387Z" fill="#8C4DFE"/>
<path fill-rule="evenodd" clip-rule="evenodd" d="M28.7041 28.9306C29.7279 27.9133 29.7279 26.264 28.7041 25.2468C27.6802 24.2295 26.0203 24.2295 24.9964 25.2468C23.9726 26.264 23.9726 27.9133 24.9964 28.9306C26.0203 29.9478 27.6802 29.9478 28.7041 28.9306ZM27.7284 26.2162C27.2434 25.7343 26.4571 25.7343 25.9721 26.2162C25.4871 26.698 25.4871 27.4793 25.9721 27.9611C26.4571 28.443 27.2434 28.443 27.7284 27.9611C28.2133 27.4793 28.2133 26.698 27.7284 26.2162Z" fill="#8C4DFE"/>
<path fill-rule="evenodd" clip-rule="evenodd" d="M13.8539 10.4922C14.8778 11.5094 14.8778 13.1587 13.8539 14.176C12.8301 15.1932 11.1701 15.1932 10.1463 14.176L5.46294 9.52277C4.4391 8.50552 4.4391 6.85623 5.46294 5.83897C6.48678 4.82172 8.14676 4.82172 9.1706 5.83897L13.8539 10.4922ZM11.122 13.2066L6.43864 8.55335C5.95366 8.07149 5.95366 7.29025 6.43864 6.80839C6.92362 6.32654 7.70992 6.32654 8.1949 6.80839L12.8782 11.4616C13.3632 11.9435 13.3632 12.7247 12.8782 13.2066C12.3933 13.6884 11.607 13.6884 11.122 13.2066Z" fill="#8C4DFE"/>
<path fill-rule="evenodd" clip-rule="evenodd" d="M6.72954 32.112C5.7057 31.0948 5.7057 29.4455 6.72954 28.4282L10.1463 25.0335C11.1701 24.0162 12.8301 24.0162 13.8539 25.0335C14.8778 26.0507 14.8778 27.7 13.8539 28.7173L10.4372 32.112C9.41336 33.1293 7.75338 33.1293 6.72954 32.112ZM12.8782 27.7479L9.4615 31.1426C8.97652 31.6245 8.19022 31.6245 7.70524 31.1426C7.22026 30.6608 7.22026 29.8795 7.70524 29.3977L11.122 26.0029C11.6069 25.5211 12.3932 25.5211 12.8782 26.0029C13.3632 26.4848 13.3632 27.266 12.8782 27.7479Z" fill="#8C4DFE"/>
<path fill-rule="evenodd" clip-rule="evenodd" d="M24.928 10.3469C23.9041 11.3642 23.9041 13.0135 24.928 14.0307C25.9518 15.048 27.6118 15.048 28.6356 14.0307L33.2321 9.46382C34.256 8.44656 34.256 6.79727 33.2321 5.78002C32.2083 4.76276 30.5483 4.76276 29.5245 5.78002L24.928 10.3469ZM27.6599 13.0613L32.2564 8.4944C32.7414 8.01254 32.7414 7.23129 32.2564 6.74944C31.7714 6.26758 30.9851 6.26758 30.5002 6.74944L25.9037 11.3163C25.4187 11.7982 25.4187 12.5795 25.9037 13.0613C26.3887 13.5432 27.175 13.5432 27.6599 13.0613Z" fill="#8C4DFE"/>
<path d="M59.134 14.528C59.134 15.4227 58.9287 16.244 58.518 16.992C58.1073 17.7253 57.4767 18.3193 56.626 18.774C55.7753 19.2287 54.7193 19.456 53.458 19.456H51.126V25H47.364V9.556H53.458C54.69 9.556 55.7313 9.76867 56.582 10.194C57.4327 10.6193 58.0707 11.206 58.496 11.954C58.9213 12.702 59.134 13.56 59.134 14.528ZM53.172 16.464C53.8907 16.464 54.426 16.2953 54.778 15.958C55.13 15.6207 55.306 15.144 55.306 14.528C55.306 13.912 55.13 13.4353 54.778 13.098C54.426 12.7607 53.8907 12.592 53.172 12.592H51.126V16.464H53.172ZM72.6645 18.664C72.6645 19.016 72.6425 19.3827 72.5985 19.764H64.0845C64.1432 20.5267 64.3852 21.1133 64.8105 21.524C65.2505 21.92 65.7858 22.118 66.4165 22.118C67.3552 22.118 68.0078 21.722 68.3745 20.93H72.3785C72.1732 21.7367 71.7992 22.4627 71.2565 23.108C70.7285 23.7533 70.0612 24.2593 69.2545 24.626C68.4478 24.9927 67.5458 25.176 66.5485 25.176C65.3458 25.176 64.2752 24.9193 63.3365 24.406C62.3978 23.8927 61.6645 23.1593 61.1365 22.206C60.6085 21.2527 60.3445 20.138 60.3445 18.862C60.3445 17.586 60.6012 16.4713 61.1145 15.518C61.6425 14.5647 62.3758 13.8313 63.3145 13.318C64.2532 12.8047 65.3312 12.548 66.5485 12.548C67.7365 12.548 68.7925 12.7973 69.7165 13.296C70.6405 13.7947 71.3592 14.506 71.8725 15.43C72.4005 16.354 72.6645 17.432 72.6645 18.664ZM68.8145 17.674C68.8145 17.0287 68.5945 16.5153 68.1545 16.134C67.7145 15.7527 67.1645 15.562 66.5045 15.562C65.8738 15.562 65.3385 15.7453 64.8985 16.112C64.4732 16.4787 64.2092 16.9993 64.1065 17.674H68.8145ZM73.9012 18.84C73.9012 17.5787 74.1358 16.4713 74.6052 15.518C75.0892 14.5647 75.7418 13.8313 76.5632 13.318C77.3845 12.8047 78.3012 12.548 79.3132 12.548C80.1785 12.548 80.9338 12.724 81.5792 13.076C82.2392 13.428 82.7452 13.89 83.0972 14.462V12.724H86.8592V25H83.0972V23.262C82.7305 23.834 82.2172 24.296 81.5572 24.648C80.9118 25 80.1565 25.176 79.2912 25.176C78.2938 25.176 77.3845 24.9193 76.5632 24.406C75.7418 23.878 75.0892 23.1373 74.6052 22.184C74.1358 21.216 73.9012 20.1013 73.9012 18.84ZM83.0972 18.862C83.0972 17.9233 82.8332 17.1827 82.3052 16.64C81.7918 16.0973 81.1612 15.826 80.4132 15.826C79.6652 15.826 79.0272 16.0973 78.4992 16.64C77.9858 17.168 77.7292 17.9013 77.7292 18.84C77.7292 19.7787 77.9858 20.5267 78.4992 21.084C79.0272 21.6267 79.6652 21.898 80.4132 21.898C81.1612 21.898 81.7918 21.6267 82.3052 21.084C82.8332 20.5413 83.0972 19.8007 83.0972 18.862ZM97.0828 25L93.3428 19.852V25H89.5808V8.72H93.3428V17.718L97.0608 12.724H101.703L96.5988 18.884L101.747 25H97.0828ZM113.234 9.556V12.57H106.942V15.826H111.65V18.752H106.942V25H103.18V9.556H113.234ZM120.8 25.176C119.597 25.176 118.512 24.9193 117.544 24.406C116.59 23.8927 115.835 23.1593 115.278 22.206C114.735 21.2527 114.464 20.138 114.464 18.862C114.464 17.6007 114.742 16.4933 115.3 15.54C115.857 14.572 116.62 13.8313 117.588 13.318C118.556 12.8047 119.641 12.548 120.844 12.548C122.046 12.548 123.132 12.8047 124.1 13.318C125.068 13.8313 125.83 14.572 126.388 15.54C126.945 16.4933 127.224 17.6007 127.224 18.862C127.224 20.1233 126.938 21.238 126.366 22.206C125.808 23.1593 125.038 23.8927 124.056 24.406C123.088 24.9193 122.002 25.176 120.8 25.176ZM120.8 21.92C121.518 21.92 122.127 21.656 122.626 21.128C123.139 20.6 123.396 19.8447 123.396 18.862C123.396 17.8793 123.146 17.124 122.648 16.596C122.164 16.068 121.562 15.804 120.844 15.804C120.11 15.804 119.502 16.068 119.018 16.596C118.534 17.1093 118.292 17.8647 118.292 18.862C118.292 19.8447 118.526 20.6 118.996 21.128C119.48 21.656 120.081 21.92 120.8 21.92ZM128.471 18.862C128.471 17.586 128.728 16.4713 129.241 15.518C129.769 14.5647 130.495 13.8313 131.419 13.318C132.358 12.8047 133.429 12.548 134.631 12.548C136.171 12.548 137.455 12.9513 138.481 13.758C139.523 14.5647 140.205 15.7013 140.527 17.168H136.523C136.186 16.2293 135.533 15.76 134.565 15.76C133.876 15.76 133.326 16.0313 132.915 16.574C132.505 17.102 132.299 17.8647 132.299 18.862C132.299 19.8593 132.505 20.6293 132.915 21.172C133.326 21.7 133.876 21.964 134.565 21.964C135.533 21.964 136.186 21.4947 136.523 20.556H140.527C140.205 21.9933 139.523 23.1227 138.481 23.944C137.44 24.7653 136.157 25.176 134.631 25.176C133.429 25.176 132.358 24.9193 131.419 24.406C130.495 23.8927 129.769 23.1593 129.241 22.206C128.728 21.2527 128.471 20.138 128.471 18.862ZM154.662 12.724V25H150.9V23.328C150.518 23.8707 149.998 24.3107 149.338 24.648C148.692 24.9707 147.974 25.132 147.182 25.132C146.243 25.132 145.414 24.9267 144.696 24.516C143.977 24.0907 143.42 23.482 143.024 22.69C142.628 21.898 142.43 20.9667 142.43 19.896V12.724H146.17V19.39C146.17 20.2113 146.382 20.8493 146.808 21.304C147.233 21.7587 147.805 21.986 148.524 21.986C149.257 21.986 149.836 21.7587 150.262 21.304C150.687 20.8493 150.9 20.2113 150.9 19.39V12.724H154.662ZM162.358 25.176C161.287 25.176 160.334 24.9927 159.498 24.626C158.662 24.2593 158.002 23.7607 157.518 23.13C157.034 22.4847 156.763 21.766 156.704 20.974H160.422C160.466 21.3993 160.664 21.744 161.016 22.008C161.368 22.272 161.801 22.404 162.314 22.404C162.783 22.404 163.143 22.316 163.392 22.14C163.656 21.9493 163.788 21.7073 163.788 21.414C163.788 21.062 163.605 20.8053 163.238 20.644C162.871 20.468 162.277 20.2773 161.456 20.072C160.576 19.8667 159.843 19.654 159.256 19.434C158.669 19.1993 158.163 18.84 157.738 18.356C157.313 17.8573 157.1 17.19 157.1 16.354C157.1 15.65 157.291 15.012 157.672 14.44C158.068 13.8533 158.64 13.3913 159.388 13.054C160.151 12.7167 161.053 12.548 162.094 12.548C163.634 12.548 164.844 12.9293 165.724 13.692C166.619 14.4547 167.132 15.4667 167.264 16.728H163.788C163.729 16.3027 163.539 15.9653 163.216 15.716C162.908 15.4667 162.497 15.342 161.984 15.342C161.544 15.342 161.207 15.43 160.972 15.606C160.737 15.7673 160.62 15.9947 160.62 16.288C160.62 16.64 160.803 16.904 161.17 17.08C161.551 17.256 162.138 17.432 162.93 17.608C163.839 17.8427 164.58 18.0773 165.152 18.312C165.724 18.532 166.223 18.8987 166.648 19.412C167.088 19.9107 167.315 20.5853 167.33 21.436C167.33 22.1547 167.125 22.8 166.714 23.372C166.318 23.9293 165.739 24.3693 164.976 24.692C164.228 25.0147 163.355 25.176 162.358 25.176Z" fill="black"/>
</svg>
