<svg width="107" height="108" viewBox="0 0 107 108" fill="none" xmlns="http://www.w3.org/2000/svg">
<path fill-rule="evenodd" clip-rule="evenodd" d="M61.2286 0C56.6719 0 52.978 3.70448 52.978 8.27419V29.1774C52.978 33.7471 56.6719 37.4516 61.2286 37.4516C65.7854 37.4516 69.4793 33.7471 69.4793 29.1774V8.27419C69.4793 3.70448 65.7854 0 61.2286 0ZM65.1369 29.1774V8.27419C65.1369 6.10959 63.3871 4.35484 61.2286 4.35484C59.0702 4.35484 57.3204 6.10959 57.3204 8.27419V29.1774C57.3204 31.342 59.0702 33.0968 61.2286 33.0968C63.3871 33.0968 65.1369 31.342 65.1369 29.1774Z" fill="#8C4DFE"/>
<path fill-rule="evenodd" clip-rule="evenodd" d="M61.2286 86.2258C56.6719 86.2258 52.978 89.9303 52.978 94.5V99.7258C52.978 104.296 56.6719 108 61.2286 108C65.7854 108 69.4793 104.296 69.4793 99.7258V94.5C69.4793 89.9303 65.7854 86.2258 61.2286 86.2258ZM65.1369 99.7258V94.5C65.1369 92.3354 63.3871 90.5806 61.2286 90.5806C59.0702 90.5806 57.3204 92.3354 57.3204 94.5V99.7258C57.3204 101.89 59.0702 103.645 61.2286 103.645C63.3871 103.645 65.1369 101.89 65.1369 99.7258Z" fill="#8C4DFE"/>
<path fill-rule="evenodd" clip-rule="evenodd" d="M28.226 54C32.7827 54 36.4766 57.7045 36.4766 62.2742C36.4766 66.8439 32.7827 70.5484 28.226 70.5484H8.25067C3.69395 70.5484 0 66.8439 0 62.2742C0 57.7045 3.69395 54 8.25067 54H28.226ZM28.226 66.1935H8.25067C6.09222 66.1935 4.34246 64.4388 4.34246 62.2742C4.34246 60.1096 6.09222 58.3548 8.25067 58.3548H28.226C30.3844 58.3548 32.1342 60.1096 32.1342 62.2742C32.1342 64.4388 30.3844 66.1935 28.226 66.1935Z" fill="#8C4DFE"/>
<path fill-rule="evenodd" clip-rule="evenodd" d="M90.3334 91.8971C93.5555 88.6658 93.5555 83.4269 90.3334 80.1956C87.1113 76.9643 81.8873 76.9643 78.6652 80.1956C75.4431 83.4269 75.4431 88.6658 78.6652 91.8971C81.8873 95.1283 87.1113 95.1284 90.3334 91.8971ZM87.2628 83.2749C85.7366 81.7443 83.262 81.7443 81.7358 83.2749C80.2095 84.8055 80.2095 87.2871 81.7358 88.8177C83.262 90.3483 85.7366 90.3483 87.2628 88.8177C88.7891 87.2871 88.7891 84.8055 87.2628 83.2749Z" fill="#8C4DFE"/>
<path fill-rule="evenodd" clip-rule="evenodd" d="M43.5992 33.3281C46.8213 36.5594 46.8213 41.7983 43.5992 45.0296C40.3771 48.2609 35.1531 48.2609 31.931 45.0296L17.1922 30.2488C13.9701 27.0175 13.9701 21.7786 17.1922 18.5473C20.4143 15.3161 25.6383 15.3161 28.8604 18.5473L43.5992 33.3281ZM35.0016 41.9503L20.2628 27.1695C18.7365 25.6389 18.7365 23.1573 20.2628 21.6267C21.789 20.0961 24.2636 20.0961 25.7898 21.6267L40.5286 36.4075C42.0549 37.9381 42.0549 40.4197 40.5286 41.9503C39.0024 43.4809 36.5278 43.4809 35.0016 41.9503Z" fill="#8C4DFE"/>
<path fill-rule="evenodd" clip-rule="evenodd" d="M21.1783 102.003C17.9562 98.7717 17.9562 93.5327 21.1783 90.3015L31.9309 79.5182C35.153 76.2869 40.377 76.2869 43.5991 79.5182C46.8212 82.7494 46.8212 87.9884 43.5991 91.2196L32.8465 102.003C29.6244 105.234 24.4003 105.234 21.1783 102.003ZM40.5285 88.1403L29.7759 98.9236C28.2496 100.454 25.7751 100.454 24.2488 98.9236C22.7226 97.393 22.7226 94.9114 24.2488 93.3808L35.0015 82.5975C36.5277 81.0669 39.0023 81.0669 40.5285 82.5975C42.0548 84.1281 42.0548 86.6097 40.5285 88.1403Z" fill="#8C4DFE"/>
<path fill-rule="evenodd" clip-rule="evenodd" d="M78.4498 32.8667C75.2277 36.098 75.2277 41.3369 78.4498 44.5682C81.6719 47.7995 86.8959 47.7995 90.118 44.5682L104.583 30.0615C107.806 26.8303 107.806 21.5913 104.583 18.3601C101.361 15.1288 96.1373 15.1288 92.9152 18.3601L78.4498 32.8667ZM87.0474 41.4889L101.513 26.9822C103.039 25.4516 103.039 22.97 101.513 21.4394C99.9866 19.9088 97.5121 19.9088 95.9858 21.4394L81.5204 35.946C79.9941 37.4767 79.9941 39.9583 81.5204 41.4889C83.0466 43.0195 85.5212 43.0195 87.0474 41.4889Z" fill="#8C4DFE"/>
</svg>
